# xmcd CD database file
#
# Track frame offsets:
#	150
#	9542
#	24745
#	42049
#	55740
#	71596
#	93657
#	105193
#	123235
#	147713
#	161557
#	186669
#	203344
#	217997
#	240299
#	260075
#	280390
#	294267
#	311242
#	325270
#
# Disc length: 4687 seconds
#
# Revision: 0
# Processed by: cddbd v1.5.2PL0 Copyright (c) Steve Scherf et al.
# Submitted via: CDex 1.75
#
DISCID=25124d14
DTITLE=Gb_Various - Alt Country
DYEAR=1900
DGENRE=Country
TTITLE0=Alan Sparhawk and Jessica Bailiff - Highwire
TTITLE1=Calexico - Corona
TTITLE2=Cowboy Junkies - Carmalita
TTITLE3=Dumptruck - Going Nowhere
TTITLE4=Edith Frost - Sing Me Back Home
TTITLE5=Emmylou Harris - Wrecking Ball
TTITLE6=Freakwater - Passengers
TTITLE7=Fred Eaglesmith - Drinking Too Much
TTITLE8=Fred Eaglesmith - Water In The Fuel
TTITLE9=Janet Bean - The Snakes Crawl At Night
TTITLE10=Lambchop - Action Figure
TTITLE11=Lonesome Bob -  Pardon Me (I've Got Someone To Kill) 
TTITLE12=Neko Case - Favorite
TTITLE13=Robert Forster - Danger In The Past
TTITLE14=Robert Foster - I've Been Looking For Somebody
TTITLE15=Robert Forster - The Evangelist
TTITLE16=Ghost Dance - Roma Di Luna
TTITLE17=Rosanne Cash - Black Cadillac
TTITLE18=Ryan Adams - To Be Young
TTITLE19=Whiskey Biscuit - Santa Ana River Delta Blues
EXTD=
EXTT0=
EXTT1=
EXTT2=
EXTT3=
EXTT4=
EXTT5=
EXTT6=
EXTT7=
EXTT8=
EXTT9=
EXTT10=
EXTT11=
EXTT12=
EXTT13=
EXTT14=
EXTT15=
EXTT16=
EXTT17=
EXTT18=
EXTT19=
PLAYORDER=
